<?xml version="1.0" standalone="no"?>
<!DOCTYPE svg PUBLIC "-//W3C//DTD SVG 20010904//EN"
 "http://www.w3.org/TR/2001/REC-SVG-20010904/DTD/svg10.dtd">
<svg version="1.0" xmlns="http://www.w3.org/2000/svg"
 width="1203.000000pt" height="1204.000000pt" viewBox="0 0 1203.000000 1204.000000"
 preserveAspectRatio="xMidYMid meet">

<g transform="translate(0.000000,1204.000000) scale(0.100000,-0.100000)"
fill="#000000" stroke="none">
<path d="M0 6525 l0 -5515 44 -11 c59 -15 136 -85 224 -202 70 -94 110 -162
118 -200 2 -11 -3 -41 -12 -66 -24 -71 -28 -105 -29 -251 0 -104 4 -145 17
-175 9 -22 22 -55 28 -72 l12 -33 74 0 c41 0 74 4 74 8 0 10 31 49 97 120 29
32 62 74 75 95 52 84 201 65 300 -37 40 -41 98 -142 98 -171 0 -13 19 -15 125
-15 115 0 125 2 135 20 18 33 53 41 104 24 25 -9 50 -22 57 -30 8 -10 36 -14
106 -14 l94 0 -25 33 c-43 56 -45 195 -4 289 11 24 13 25 25 10 11 -16 12 -16
13 1 0 9 3 16 8 16 20 -4 71 15 65 24 -4 7 0 8 12 4 11 -5 23 -1 32 10 8 10
11 12 7 4 -5 -9 -3 -12 4 -7 7 4 12 14 12 23 0 10 6 14 19 10 23 -6 34 15 18
33 -10 10 -8 10 10 1 12 -6 31 -11 43 -11 11 0 23 -7 26 -15 4 -8 10 -13 14
-10 4 3 11 -2 14 -11 3 -8 10 -13 15 -10 11 7 54 -50 58 -74 1 -8 17 -28 36
-45 41 -36 53 -57 62 -112 9 -56 -1 -97 -32 -134 l-26 -30 34 3 c54 5 71 49
66 165 -5 100 2 112 40 71 12 -13 34 -45 50 -73 16 -27 37 -51 46 -53 33 -7
29 27 -9 84 -121 174 -172 330 -151 464 3 14 5 34 6 45 2 19 2 19 15 2 7 -9
16 -35 20 -56 7 -45 53 -91 92 -91 17 0 30 -10 43 -31 23 -38 51 -145 55 -213
4 -55 -18 -176 -40 -218 -8 -15 -14 -35 -14 -44 0 -10 -7 -26 -17 -36 -16 -17
1 -18 503 -18 l519 1 -40 21 c-55 29 -305 218 -305 230 0 6 10 7 23 4 12 -4
58 -10 103 -13 62 -4 93 -2 135 12 84 27 205 93 248 136 41 39 81 106 81 135
0 43 -351 345 -453 388 -54 24 -220 57 -270 55 -26 -2 -49 0 -52 3 -8 8 43
109 95 190 73 112 134 186 180 216 66 45 170 72 276 73 142 1 145 8 28 67
-212 106 -339 247 -474 522 -23 47 -45 92 -49 100 -31 59 -79 274 -63 283 4 3
63 -4 132 -14 69 -10 159 -23 200 -29 41 -7 110 -22 153 -36 90 -28 110 -30
82 -8 -18 14 -198 104 -250 125 -11 4 -38 15 -60 24 -52 21 -40 27 95 50 123
20 331 17 418 -7 69 -20 53 3 -24 31 -29 11 -86 42 -125 68 l-72 48 69 3 c145
6 242 -23 435 -130 73 -42 166 -92 204 -112 39 -20 84 -44 100 -53 56 -31 100
-51 225 -103 203 -84 221 -91 243 -92 12 0 63 -12 114 -25 110 -30 129 -47
176 -158 34 -80 59 -102 65 -57 2 13 -1 28 -6 35 -18 21 -25 86 -12 102 19 23
54 19 205 -26 198 -58 245 -67 245 -50 0 17 -231 88 -445 136 -66 15 -169 41
-230 57 -60 16 -134 36 -164 44 -219 58 -870 398 -1111 580 -286 216 -573 576
-644 806 -26 84 -20 94 33 58 24 -16 47 -27 52 -24 14 8 11 45 -5 63 -7 9 -35
57 -62 106 -43 81 -48 97 -48 157 -1 36 2 70 6 74 4 4 38 -13 75 -38 122 -81
237 -128 406 -163 126 -26 162 -17 104 28 -52 39 -203 197 -252 262 -68 90
-132 228 -165 351 -28 106 -57 281 -47 290 4 4 34 -59 71 -148 8 -21 22 -38
30 -38 9 0 16 2 16 4 0 3 -14 62 -31 133 -29 120 -30 137 -26 268 3 84 10 156
19 180 21 59 76 135 106 147 15 5 43 17 62 25 105 46 311 88 331 69 2 -3 2
-31 -1 -63 -9 -102 29 -454 64 -586 35 -132 152 -394 234 -521 115 -180 273
-265 497 -266 50 0 117 -7 150 -16 33 -8 79 -19 103 -24 24 -5 56 -19 72 -30
15 -11 32 -20 37 -20 4 0 19 -9 33 -20 33 -26 56 -25 106 4 31 17 64 25 125
30 118 9 252 30 409 66 74 17 176 39 225 50 122 26 289 81 373 124 28 14 57
26 65 26 7 0 63 -38 123 -85 112 -87 188 -134 199 -123 4 3 -27 62 -69 130
-41 67 -78 130 -81 140 -5 12 12 30 67 71 85 64 130 105 146 132 13 24 13 24
42 -110 67 -306 180 -524 329 -636 30 -22 70 -47 89 -54 46 -20 180 -35 222
-26 l35 8 -55 10 c-30 6 -86 15 -123 21 -83 13 -143 49 -224 136 -62 67 -136
197 -173 306 -12 36 -26 74 -31 85 -4 11 -15 54 -23 95 -8 41 -20 100 -26 130
-11 55 -44 249 -56 327 l-7 42 127 -57 c94 -42 128 -62 131 -77 19 -101 101
-443 117 -490 48 -145 133 -276 202 -312 50 -26 166 -53 231 -53 73 0 226 23
280 42 22 8 66 31 97 51 47 30 63 48 89 99 63 124 86 219 95 384 3 65 8 122
10 125 2 3 17 6 34 7 48 1 54 -21 55 -213 0 -187 -11 -245 -66 -361 -52 -111
-175 -205 -287 -220 -60 -8 -66 -27 -9 -32 44 -4 160 48 221 99 51 43 110 135
135 212 42 126 53 221 46 378 l-7 146 98 8 c105 8 149 19 139 35 -3 5 -24 10
-47 10 -75 0 -235 49 -352 107 -145 73 -284 178 -263 200 3 2 53 -11 111 -31
188 -64 430 -117 661 -147 131 -17 128 -14 123 -117 -4 -66 -14 -114 -42 -197
-60 -175 -77 -237 -63 -232 16 5 98 105 181 221 38 53 71 94 74 92 14 -15 -73
-242 -140 -364 -59 -108 -177 -261 -277 -361 -88 -89 -267 -231 -290 -231 -27
0 -2 -26 49 -52 40 -20 83 -31 155 -39 55 -7 103 -15 107 -18 4 -3 -12 -37
-35 -74 -31 -51 -49 -70 -69 -74 -26 -5 -41 -33 -18 -33 20 0 8 -26 -71 -154
-45 -72 -120 -193 -166 -269 l-85 -138 -37 36 c-48 49 -74 61 -176 85 -117 27
-251 27 -336 -1 -136 -45 -234 -170 -279 -358 -11 -47 -17 -55 -49 -68 -20 -8
-72 -33 -116 -55 -71 -36 -108 -59 -258 -160 -81 -55 -302 -123 -432 -132
-183 -14 -221 -19 -195 -27 14 -4 83 -7 154 -8 l129 -1 -39 -28 c-58 -43 -103
-98 -138 -172 -28 -58 -31 -75 -31 -155 0 -83 2 -94 32 -146 34 -59 105 -130
189 -191 152 -111 499 -143 656 -62 15 8 28 10 28 5 0 -8 -193 -326 -209 -343
-4 -4 -31 2 -61 14 -111 46 -413 22 -662 -52 -497 -147 -946 -374 -1339 -676
-174 -134 -207 -164 -181 -164 11 0 49 24 84 53 193 163 483 354 714 470 190
96 229 113 469 202 303 112 477 152 705 162 131 5 136 5 155 -17 16 -18 20
-36 20 -94 l0 -71 -74 -115 c-40 -63 -75 -117 -76 -118 -2 -2 -32 12 -67 31
-35 19 -76 37 -92 41 -26 6 -28 5 -17 -8 8 -9 17 -16 21 -16 11 0 180 -99 203
-118 12 -11 17 -30 17 -64 0 -83 -52 -162 -137 -210 -30 -17 -78 -53 -106 -79
l-52 -48 68 -1 c37 0 67 4 67 9 0 4 16 29 35 55 34 43 99 82 250 147 102 43
228 54 465 40 285 -17 466 -52 634 -125 17 -7 92 -39 166 -70 l135 -56 785 1
785 1 -63 20 c-35 11 -60 24 -55 28 4 4 46 27 93 51 190 97 317 184 415 284
62 62 242 320 287 410 44 87 28 92 -130 41 -188 -61 -168 -65 -286 52 -173
171 -307 250 -539 319 l-127 38 43 15 c56 20 67 28 67 50 0 25 -102 117 -189
171 -39 24 -71 46 -71 50 0 8 92 17 330 29 107 6 256 15 330 21 74 6 158 12
185 14 235 13 428 26 470 30 28 3 176 12 330 20 154 8 296 18 315 20 36 6 128
12 285 20 50 2 185 11 300 19 116 8 279 18 363 22 123 6 152 10 152 21 0 12
-11 14 -57 9 -59 -6 -277 -20 -478 -31 -60 -3 -204 -13 -320 -21 -115 -9 -255
-18 -310 -20 -55 -2 -152 -8 -215 -14 -63 -5 -232 -17 -375 -25 -143 -8 -318
-20 -390 -26 -71 -5 -173 -12 -225 -15 -52 -2 -187 -11 -300 -19 -447 -31
-435 -31 -541 3 -123 40 -185 52 -269 52 -38 0 -71 4 -74 9 -4 5 24 33 61 62
87 68 172 156 241 249 61 82 132 210 132 240 0 11 30 41 78 77 102 79 223 218
298 345 34 56 64 110 66 118 3 8 13 -12 22 -45 28 -96 90 -190 196 -296 53
-53 107 -102 119 -109 26 -14 26 -18 1 95 -13 62 -6 219 15 310 34 146 77 188
290 286 39 17 119 59 178 93 60 33 118 66 130 73 73 39 186 124 212 159 63 82
111 294 114 503 1 55 3 62 16 51 8 -7 15 -17 15 -22 0 -24 112 -148 197 -218
108 -90 255 -169 241 -131 -1 5 -23 31 -48 58 -53 56 -142 174 -137 180 2 2
24 -5 48 -15 99 -43 162 -55 284 -56 126 -1 255 21 292 50 17 14 17 15 -7 32
-144 100 -260 205 -337 307 l-38 50 -1 160 c0 155 -23 413 -45 505 -6 25 -13
61 -16 80 -3 19 -11 44 -18 55 -7 11 -20 55 -30 97 -9 43 -23 83 -31 89 -8 6
-14 17 -14 23 0 14 -56 125 -74 146 -48 57 -21 45 99 -45 89 -67 140 -110 164
-139 9 -10 24 -26 34 -35 9 -8 17 -21 17 -28 0 -7 5 -13 10 -13 6 0 16 -12 22
-27 7 -16 20 -40 30 -55 10 -15 29 -57 41 -94 23 -69 42 -90 53 -57 3 10 10
26 15 36 36 67 5 315 -48 378 -7 8 -13 21 -13 28 0 18 -84 142 -129 188 -23
23 -41 44 -41 46 0 2 39 7 88 10 48 3 95 9 105 13 31 12 15 37 -31 49 -24 5
-40 14 -36 18 5 4 2 6 -6 3 -8 -4 -55 5 -105 20 -49 14 -97 27 -105 28 -37 9
-80 31 -80 43 0 7 11 36 24 65 32 72 46 115 46 149 0 20 5 30 18 31 50 5 312
2 312 -3 0 -11 40 -18 46 -8 4 6 11 6 19 -1 7 -6 20 -8 29 -4 10 4 16 1 16 -7
0 -11 2 -11 10 1 7 12 14 12 27 4 11 -6 30 -8 48 -3 29 8 29 7 10 -8 l-20 -16
20 9 c11 5 58 8 105 6 93 -2 239 -4 283 -3 20 1 27 6 27 21 0 16 -7 20 -36 20
-19 0 -33 3 -31 8 3 4 -25 7 -61 7 -93 0 -313 13 -319 18 -2 3 -23 2 -45 -1
-28 -3 -39 -2 -34 6 7 11 -38 7 -57 -5 -6 -4 -8 1 -4 11 5 11 3 15 -5 10 -15
-9 -158 -14 -158 -6 0 8 -15 9 -122 12 -68 2 -76 4 -63 17 20 20 19 29 -2 12
-15 -12 -16 -12 -11 2 4 9 1 22 -5 28 -9 10 -8 15 3 24 17 14 25 57 10 57 -6
0 -10 9 -10 20 0 12 -7 34 -15 50 -9 17 -11 30 -5 30 5 0 10 -6 11 -12 0 -7 4
-1 9 13 4 15 6 38 5 53 -3 24 -1 26 26 21 16 -3 29 -1 29 3 0 5 6 9 13 9 6 1
39 5 72 10 95 13 295 1 295 -18 0 -5 54 -9 120 -9 111 0 121 -2 140 -22 19
-20 23 -21 33 -8 14 18 117 15 130 -4 5 -7 13 -3 27 14 17 22 22 23 40 12 19
-11 20 -10 20 28 0 22 -4 40 -10 40 -5 0 -10 9 -10 21 0 11 -8 34 -17 50 -13
23 -15 31 -5 41 9 9 12 6 12 -15 0 -17 5 -27 15 -27 13 0 15 194 15 1682 l0
1681 -24 -22 c-13 -12 -61 -81 -107 -152 -113 -175 -266 -395 -348 -499 -37
-47 -111 -147 -164 -223 -54 -76 -103 -135 -108 -131 -6 3 -7 32 -3 76 8 79
-1 84 -31 18 -10 -22 -22 -40 -28 -40 -9 0 -8 9 12 85 15 55 29 154 47 330 8
83 19 191 24 240 15 134 37 429 41 541 10 250 4 751 -10 829 -21 119 -32 123
-23 10 10 -137 5 -672 -7 -825 -6 -69 -19 -244 -31 -390 -27 -355 -58 -609
-86 -722 -10 -37 -12 -64 -6 -74 20 -36 -164 -489 -276 -679 -134 -229 -173
-286 -294 -439 -27 -33 -48 -65 -48 -72 0 -7 -3 -14 -8 -16 -4 -1 -27 -37 -52
-78 -24 -41 -47 -77 -50 -80 -4 -3 -17 -25 -31 -50 -13 -25 -26 -47 -29 -50
-3 -3 -23 -39 -44 -80 -21 -41 -44 -82 -51 -90 -6 -8 -33 -53 -60 -98 -49 -86
-116 -181 -165 -236 -15 -17 -38 -44 -51 -59 -17 -20 -29 -26 -42 -22 -9 4
-17 11 -17 15 0 4 -11 23 -24 43 -33 48 -106 195 -146 292 -54 133 -140 304
-176 351 -19 24 -34 49 -34 54 0 6 -11 20 -25 32 -42 36 -33 47 35 41 66 -6
90 5 90 42 0 12 -7 28 -16 36 -14 12 -14 14 2 26 10 7 24 13 32 13 14 0 121
49 132 60 3 3 21 17 40 31 77 58 182 178 231 264 54 97 79 156 79 190 0 31 -4
38 -32 50 -28 11 -44 11 -103 0 -156 -30 -222 -45 -263 -61 -24 -9 -45 -14
-48 -11 -3 2 10 20 28 38 37 38 123 162 157 224 12 22 26 47 31 55 19 30 143
340 179 445 52 158 102 393 95 448 -10 72 -66 82 -113 20 -34 -43 -224 -233
-229 -228 -3 2 0 11 7 18 18 23 86 165 141 297 13 30 27 59 32 65 4 5 8 15 8
23 0 7 8 32 19 55 10 23 31 76 46 117 15 41 31 80 35 85 3 6 15 36 25 68 11
31 23 57 28 57 4 0 6 4 2 10 -3 5 -1 17 4 27 18 34 41 91 41 102 0 6 6 25 14
43 8 18 21 49 29 68 9 19 25 64 37 99 53 158 188 486 267 651 161 333 183 373
305 571 36 58 69 115 72 127 12 36 101 150 183 235 44 45 82 90 86 100 6 16
-140 17 -2973 17 -2876 0 -3057 -2 -2961 -27 16 -4 21 -17 26 -62 4 -31 10
-69 15 -86 5 -16 16 -79 25 -140 9 -60 22 -147 30 -192 8 -45 15 -102 15 -126
0 -25 7 -75 15 -113 8 -38 28 -136 45 -219 17 -82 37 -166 44 -185 7 -19 16
-51 20 -70 6 -34 4 -37 -76 -105 -91 -77 -259 -243 -325 -321 -86 -101 -159
-191 -174 -214 -23 -35 -29 -23 -17 35 19 98 -57 634 -142 1005 -12 52 -29
124 -37 160 -25 110 -41 263 -36 346 5 95 37 236 63 282 l19 32 -67 0 -67 0
-23 -62 c-13 -35 -27 -72 -32 -83 -5 -11 -23 -60 -40 -110 -18 -49 -36 -99
-40 -110 -4 -11 -27 -81 -50 -155 -24 -74 -49 -154 -56 -177 -8 -23 -22 -75
-33 -115 -40 -145 -32 -137 -66 -71 -33 64 -61 76 -82 34 -6 -14 -21 -25 -32
-26 -12 -1 -24 -4 -27 -8 -4 -3 -24 -62 -45 -131 -36 -118 -64 -291 -60 -373
2 -38 -8 -42 -34 -13 -26 29 -57 21 -74 -17 -16 -37 -27 -41 -35 -15 -6 17
-35 27 -37 13 0 -3 -2 -13 -4 -21 -2 -8 -9 -35 -16 -60 -7 -30 -9 -98 -5 -200
l6 -155 -33 -46 c-54 -78 -120 -151 -145 -160 -18 -7 -41 -3 -86 13 -33 12
-66 25 -73 30 -20 16 -53 -7 -107 -72 -15 -19 -62 -70 -103 -112 l-74 -78 2
63 c1 34 6 76 10 92 4 17 13 64 19 105 24 161 138 751 156 809 6 19 95 407
105 461 5 24 6 59 3 77 -5 26 -1 39 20 64 14 17 26 34 26 37 0 12 -44 58 -82
86 -21 15 -38 31 -38 36 0 4 30 11 68 15 108 10 119 21 28 30 -148 14 -175
-23 -81 -110 l57 -53 -22 -30 c-16 -22 -21 -39 -17 -59 6 -31 -17 -158 -68
-368 -18 -77 -41 -174 -49 -215 -9 -41 -25 -118 -36 -170 -12 -52 -26 -120
-31 -150 -6 -30 -21 -109 -34 -175 -24 -121 -54 -298 -75 -435 -22 -144 -30
-168 -75 -223 -42 -51 -55 -72 -118 -187 -16 -30 -61 -110 -99 -177 l-69 -123
-42 1 c-50 0 -178 22 -196 33 -7 5 -45 16 -84 26 -89 22 -187 56 -201 70 -18
18 -13 319 7 440 101 624 231 1130 424 1645 25 66 51 136 58 155 23 61 156
373 180 420 12 25 26 55 29 68 l7 22 -1540 0 -1541 0 0 -5515z m10015 4985 c3
-5 1 -10 -4 -10 -6 0 -11 5 -11 10 0 6 2 10 4 10 3 0 8 -4 11 -10z m45 -60 c0
-5 -4 -10 -10 -10 -5 0 -10 5 -10 10 0 6 5 10 10 10 6 0 10 -4 10 -10z m120
-171 c0 -11 7 -27 15 -35 12 -12 12 -20 4 -36 -12 -23 -1 -19 35 11 18 15 18
14 14 -22 -4 -34 -2 -36 17 -31 11 3 24 10 30 15 16 16 35 10 35 -11 0 -11 5
-20 10 -20 7 0 8 -23 4 -67 -6 -57 -5 -66 8 -60 10 3 27 -7 47 -29 17 -20 35
-33 40 -29 13 7 31 -27 31 -59 0 -13 6 -31 14 -39 24 -23 22 -38 -13 -123 -30
-72 -200 -333 -223 -342 -4 -2 -8 -8 -8 -13 0 -9 -30 -46 -154 -193 -39 -47
-116 -134 -161 -180 -11 -12 -63 -71 -115 -131 -177 -206 -410 -448 -699 -728
-99 -95 -208 -232 -264 -329 -33 -56 -47 -61 -48 -15 0 21 -7 5 -20 -50 -14
-58 -24 -80 -33 -77 -9 3 -17 -10 -25 -38 -22 -84 -13 -89 -238 141 -150 154
-210 222 -215 245 -13 56 -37 179 -57 296 -11 63 -25 133 -30 155 -6 22 -20
81 -31 130 -24 105 -47 182 -61 208 -6 11 -9 20 -7 22 13 13 134 91 294 190
169 105 560 361 704 462 80 56 221 160 495 364 77 57 152 113 167 124 15 11
91 74 170 140 185 155 172 145 215 161 51 18 53 17 53 -7z m-4290 -345 c0 -3
-20 -28 -44 -55 -48 -54 -134 -179 -186 -274 -18 -33 -39 -69 -45 -80 -61 -99
-202 -399 -288 -610 -69 -169 -174 -506 -212 -677 -7 -35 -27 -126 -44 -203
-48 -215 -50 -224 -62 -313 -7 -45 -17 -81 -22 -79 -18 6 -95 167 -116 242
-18 64 -24 221 -13 339 l11 109 67 61 c37 34 85 77 106 96 l39 35 -12 155 c-7
85 -13 156 -15 158 -5 8 -109 -67 -186 -136 l-87 -77 1 -132 1 -133 -84 -87
c-46 -49 -105 -113 -130 -143 -47 -57 -132 -191 -143 -228 -19 -58 -28 13 -12
88 26 121 128 367 232 563 211 394 434 699 723 988 213 212 320 298 476 383
32 17 45 20 45 10z m1826 -350 c174 -243 346 -722 448 -1244 45 -227 66 -349
87 -495 19 -127 19 -156 10 -309 -14 -211 -26 -243 -47 -121 -3 22 -17 61 -30
88 -13 26 -28 66 -35 90 -6 23 -25 77 -41 119 l-30 77 34 53 c69 104 80 133
68 181 -33 125 -136 337 -154 316 -2 -2 -30 -47 -61 -99 -32 -52 -80 -124
-107 -160 -26 -35 -48 -72 -48 -82 0 -10 17 -37 39 -61 48 -52 101 -138 101
-163 0 -11 -17 -49 -38 -84 -21 -36 -48 -86 -60 -111 -63 -130 -381 -463 -426
-446 -10 4 -15 29 -18 89 -3 67 1 97 19 157 99 315 215 955 240 1326 4 66 8
264 8 440 -1 264 -4 334 -18 400 -9 44 -20 94 -24 110 l-6 30 23 -20 c12 -11
42 -47 66 -81z m-2009 -111 c15 -32 27 -62 27 -68 1 -5 -24 -15 -54 -21 -30
-7 -66 -16 -80 -20 -24 -7 -24 -6 -9 12 17 21 69 129 69 144 0 27 23 4 47 -47z
m-727 -858 l0 -65 -47 -34 c-26 -19 -50 -33 -54 -30 -14 9 -17 89 -4 114 18
34 83 92 96 85 5 -4 9 -35 9 -70z m1400 -211 c0 -67 2 -75 15 -64 9 7 18 10
22 6 14 -14 14 -117 -2 -216 -48 -310 -60 -547 -36 -745 38 -313 176 -1075
220 -1212 18 -56 127 -343 157 -411 8 -18 14 -38 14 -45 0 -14 -114 -97 -133
-97 -14 0 -140 207 -226 371 -111 212 -228 492 -267 641 -18 71 -21 290 -4
348 21 71 -21 188 -56 159 -29 -24 -12 -290 32 -494 50 -234 225 -625 420
-938 41 -66 74 -121 74 -124 0 -2 -11 -19 -25 -37 -31 -41 -99 -211 -125 -312
-22 -85 -26 -216 -9 -277 5 -21 24 -54 42 -74 l32 -37 -35 20 c-19 10 -39 23
-45 27 -5 4 -46 33 -90 64 -128 91 -252 193 -375 311 l-115 109 0 71 c-1 64 7
186 19 302 6 66 22 158 36 213 13 48 11 53 -59 270 -101 309 -99 304 -111 382
-6 39 -17 98 -25 133 -8 35 -15 75 -15 88 0 28 65 221 150 444 12 30 36 98 55
150 32 90 90 242 190 499 25 63 43 116 41 118 -4 4 -62 -112 -119 -238 -52
-112 -211 -518 -314 -799 l-20 -55 -12 40 c-6 22 -11 50 -11 63 0 53 -28 4
-153 -263 -111 -240 -181 -427 -247 -664 -27 -95 -31 -125 -27 -180 6 -66 44
-219 64 -256 6 -11 18 -45 28 -75 17 -56 28 -82 84 -201 17 -37 31 -69 31 -73
0 -11 138 -223 171 -261 19 -22 57 -62 84 -90 28 -28 69 -72 93 -98 23 -26 44
-47 46 -47 2 0 2 27 -1 60 -3 33 -2 60 3 60 5 0 36 -41 69 -92 33 -50 64 -96
70 -102 6 -6 19 -24 29 -41 23 -35 17 -27 112 -145 43 -52 117 -133 166 -180
48 -47 88 -88 88 -92 0 -3 -15 -10 -32 -13 -18 -4 -37 -11 -43 -14 -5 -4 -30
-13 -54 -20 -40 -12 -94 -36 -189 -86 -41 -21 -41 -21 -132 100 -99 132 -163
244 -210 373 -7 17 -18 32 -25 32 -6 0 -24 32 -39 70 -27 69 -43 92 -33 48 18
-79 60 -222 117 -403 16 -49 57 -178 90 -285 34 -107 72 -224 85 -260 13 -36
28 -83 35 -105 6 -22 15 -49 20 -60 5 -11 18 -46 29 -77 11 -32 25 -66 30 -75
5 -10 16 -34 24 -53 23 -49 91 -175 165 -302 34 -60 62 -110 62 -113 0 -3 -22
11 -49 32 -304 238 -597 522 -752 728 -127 169 -245 374 -294 510 -10 28 -22
55 -25 60 -19 26 -81 251 -124 450 -19 86 -45 306 -51 435 -14 284 1 708 31
925 9 61 20 142 24 182 5 40 12 89 16 110 13 74 -4 27 -31 -82 -40 -168 -55
-277 -71 -525 -7 -121 -21 -183 -53 -253 -17 -37 -31 -68 -31 -71 0 -3 -11
-29 -24 -58 -124 -274 -222 -618 -259 -911 -8 -59 -17 -110 -20 -113 -3 -3
-18 1 -35 10 -28 15 -29 17 -35 113 -10 142 -8 301 2 308 18 11 118 161 154
230 l37 71 -15 94 c-19 123 -26 147 -74 234 l-39 72 28 114 c81 330 256 777
378 967 128 201 98 173 -198 -191 -41 -51 -99 -123 -127 -161 -29 -38 -53 -65
-53 -60 0 24 198 362 313 535 146 218 425 598 591 805 328 409 606 687 810
809 33 20 63 36 68 36 4 0 8 -34 8 -76z m1667 -272 c19 -12 53 -97 55 -135 1
-24 -8 -46 -28 -73 -53 -71 -59 -70 -90 16 l-23 65 31 67 c32 70 35 73 55 60z
m-5442 -410 c50 -32 98 -61 108 -65 24 -9 33 -36 19 -58 -7 -10 -12 -26 -12
-34 0 -8 -4 -15 -8 -15 -5 0 -40 -32 -78 -71 -91 -93 -143 -129 -188 -129 -53
0 -52 17 4 45 63 32 64 52 7 83 -78 41 -152 126 -196 226 l-21 49 42 -6 c24
-3 97 -33 164 -66 151 -76 167 -78 121 -17 -24 32 -67 104 -67 112 0 11 22 0
105 -54z m9255 -475 c-162 -786 -373 -1230 -713 -1502 -45 -36 -109 -80 -142
-96 l-60 -31 45 5 c66 6 257 46 299 62 20 8 65 21 101 30 36 9 79 23 95 30 66
28 118 46 123 40 10 -9 -51 -126 -113 -215 -101 -146 -199 -216 -365 -262 -76
-21 -104 -23 -276 -21 -200 1 -239 8 -227 41 4 9 10 19 13 22 7 5 171 275 179
293 2 5 29 48 60 96 53 80 114 181 333 551 47 80 101 168 119 196 19 28 72
116 117 195 193 332 237 409 289 504 93 168 147 252 151 232 2 -9 -11 -86 -28
-170z m95 33 c3 -5 2 -10 -4 -10 -5 0 -13 5 -16 10 -3 6 -2 10 4 10 5 0 13 -4
16 -10z m-85 -239 c0 -6 -4 -13 -10 -16 -5 -3 -10 1 -10 9 0 9 5 16 10 16 6 0
10 -4 10 -9z m-7706 -1075 c70 -49 296 -264 296 -283 0 -26 -105 -193 -182
-290 -40 -50 -99 -125 -130 -165 -32 -41 -71 -87 -88 -103 l-31 -30 -47 25
c-89 48 -212 129 -318 211 -106 82 -106 82 -101 120 11 85 112 242 242 378 72
75 174 158 215 174 33 14 94 -2 144 -37z m3161 -106 c78 -37 153 -123 208
-238 20 -40 39 -73 44 -73 26 1 108 -204 119 -297 5 -47 5 -47 -11 -20 -8 15
-24 54 -35 85 -52 156 -79 227 -79 212 -1 -9 8 -42 19 -75 59 -168 101 -324
92 -340 -14 -25 -182 -149 -306 -226 l-60 -37 -42 32 c-23 18 -71 54 -105 80
-92 69 -220 198 -290 291 -91 122 -186 257 -206 294 l-18 32 30 25 c50 42 284
185 349 214 54 24 107 41 171 55 44 9 82 5 120 -14z m-2805 -254 c0 -6 -9 -63
-19 -126 -23 -136 -50 -379 -54 -470 l-2 -65 -57 -3 c-51 -3 -66 2 -135 39
-135 72 -173 94 -173 100 0 3 15 23 33 45 73 86 320 419 349 471 29 51 32 54
45 37 7 -10 13 -23 13 -28z m70 -106 c26 -50 50 -165 50 -235 0 -47 -6 -65
-50 -137 -27 -46 -59 -94 -70 -108 l-21 -25 6 135 c3 74 15 196 26 270 10 74
19 139 19 143 0 17 21 -6 40 -43z m2068 18 c80 -130 263 -369 359 -468 44 -47
120 -116 167 -155 l85 -70 -44 -23 c-25 -12 -78 -34 -118 -49 -64 -23 -81 -25
-160 -19 -226 16 -389 104 -454 245 -24 51 -24 57 -13 140 6 47 15 97 19 111
5 14 14 45 21 70 38 142 86 250 110 250 4 0 17 -15 28 -32z m5167 12 c3 -5 1
-10 -4 -10 -6 0 -11 5 -11 10 0 6 2 10 4 10 3 0 8 -4 11 -10z m23 -102 c-6
-18 -25 -20 -31 -3 -5 10 0 15 14 15 12 0 19 -5 17 -12z m-368 -13 c0 -8 -7
-15 -16 -15 -14 0 -14 3 -4 15 7 8 14 15 16 15 2 0 4 -7 4 -15z m330 -14 c0
-6 -4 -13 -10 -16 -5 -3 -10 1 -10 9 0 9 5 16 10 16 6 0 10 -4 10 -9z m-325
-31 c3 -6 -4 -10 -17 -10 -18 0 -20 2 -8 10 19 12 18 12 25 0z m362 -27 c-3
-10 -5 -4 -5 12 0 17 2 24 5 18 2 -7 2 -21 0 -30z m108 27 c3 -5 1 -10 -4 -10
-6 0 -11 5 -11 10 0 6 2 10 4 10 3 0 8 -4 11 -10z m-571 -17 c-9 -10 -24 -18
-33 -20 -10 -1 -7 5 9 17 31 24 47 26 24 3z m518 -18 c-4 -23 -22 -36 -22 -16
0 5 -3 16 -6 25 -4 11 0 16 14 16 15 0 18 -5 14 -25z m-6010 -12 c9 -16 45
-60 81 -99 51 -57 80 -104 140 -225 108 -219 236 -436 349 -592 44 -62 43 -76
-9 -77 -26 0 -180 149 -273 266 -8 11 -41 50 -73 88 -32 38 -106 141 -164 228
l-106 160 6 116 c6 116 13 162 26 162 4 0 14 -12 23 -27z m5548 3 c0 -2 -7 -7
-16 -10 -8 -3 -12 -2 -9 4 6 10 25 14 25 6z m-113 -28 c-3 -8 -6 -5 -6 6 -1
11 2 17 5 13 3 -3 4 -12 1 -19z m-27 8 c0 -3 -4 -8 -10 -11 -5 -3 -10 -1 -10
4 0 6 5 11 10 11 6 0 10 -2 10 -4z m-230 -77 c0 -11 -4 -17 -10 -14 -5 3 -10
13 -10 21 0 8 5 14 10 14 6 0 10 -9 10 -21z m-4782 -280 c115 -86 292 -197
432 -272 259 -138 508 -208 790 -223 l125 -7 69 -68 c38 -38 67 -71 64 -74 -3
-3 -65 9 -139 26 -74 17 -177 36 -229 42 -141 16 -581 15 -723 -3 l-119 -14
-19 24 c-23 31 -134 196 -181 270 -45 72 -178 308 -178 316 0 3 -8 18 -18 32
-11 15 -21 37 -25 49 -5 23 -5 23 26 -3 18 -14 74 -57 125 -95z m1104 -212
c46 -30 151 -93 233 -142 83 -48 157 -95 165 -103 13 -13 -4 -14 -143 -8 -86
3 -179 10 -205 15 -26 5 -83 15 -127 22 -163 25 -292 65 -455 141 -82 39 -96
48 -65 43 22 -3 81 -10 130 -14 85 -8 95 -7 179 21 49 17 110 41 135 54 25 13
51 24 58 24 7 0 50 -24 95 -53z m-3587 -317 c55 -6 116 -14 135 -18 l35 -8 7
-84 c18 -225 65 -445 144 -670 54 -154 76 -200 145 -301 89 -130 182 -200 284
-213 76 -11 83 -20 33 -43 -90 -43 -141 -55 -233 -54 -101 0 -210 26 -287 68
-96 53 -187 174 -289 390 -93 196 -110 259 -160 598 -17 116 -17 304 -1 334
12 20 19 22 50 17 21 -4 82 -11 137 -16z m709 -279 c17 -104 15 -137 -4 -87
-12 32 -30 140 -30 181 0 57 17 9 34 -94z m46 42 c0 -32 3 -68 6 -80 4 -13 2
-23 -4 -23 -5 0 -12 23 -16 51 -4 29 -10 65 -13 80 -4 22 -2 29 11 29 13 0 16
-11 16 -57z m183 -36 c43 -29 80 -61 83 -72 8 -35 20 -165 15 -170 -21 -22
-197 23 -240 61 -7 6 -13 234 -7 249 5 14 9 14 38 0 18 -9 68 -40 111 -68z
m-2697 -6 c43 -21 120 -63 171 -94 50 -31 123 -72 162 -92 38 -20 71 -41 74
-48 2 -7 1 -41 -3 -76 -9 -89 28 -350 57 -407 6 -10 13 -37 16 -59 8 -45 76
-221 130 -335 40 -84 105 -188 148 -237 18 -21 30 -48 34 -80 9 -72 57 -201
103 -279 41 -70 234 -318 300 -386 19 -21 34 -39 31 -41 -12 -9 -160 -37 -196
-37 -97 0 -236 48 -338 115 -93 62 -260 239 -304 322 -10 21 -9 22 26 28 21 4
48 10 61 16 12 5 48 12 80 15 31 3 80 12 107 19 28 8 63 17 78 20 37 7 31 24
-14 39 -70 24 -241 158 -347 271 -114 122 -207 286 -290 510 -90 247 -162 509
-188 692 -17 114 -14 163 9 163 7 0 49 -17 93 -39z m4580 -22 c33 -20 34 -23
34 -81 0 -33 5 -114 11 -180 6 -65 9 -121 7 -123 -2 -2 -58 23 -125 55 l-121
59 -7 104 c-4 57 -6 112 -4 123 3 13 23 25 69 41 81 28 95 28 136 2z m-248
-142 l3 -97 -29 17 c-48 30 -162 117 -162 123 0 11 157 61 175 56 6 -1 11 -46
13 -99z m1355 72 c42 -10 96 -26 120 -35 23 -9 83 -31 132 -49 140 -51 144
-53 219 -109 39 -29 95 -68 124 -85 28 -18 52 -35 52 -38 0 -6 -95 3 -185 18
-324 53 -457 84 -611 141 l-89 33 -8 63 c-13 94 -12 95 86 87 45 -3 117 -15
160 -26z m-23 -371 c50 -28 88 -53 86 -55 -17 -17 -186 72 -186 98 0 14 3 13
100 -43z m169 -114 c8 -7 -50 -16 -65 -10 -27 10 -5 26 29 19 18 -3 34 -7 36
-9z m-5059 -465 c0 -11 -4 -19 -10 -19 -5 0 -10 6 -10 14 0 8 -3 23 -7 33 -6
16 -5 16 10 4 9 -7 17 -22 17 -32z m6055 -856 c-21 -48 -43 -101 -50 -118 -44
-99 -78 -226 -83 -302 -4 -69 -2 -83 10 -83 8 0 20 12 27 28 16 34 119 192
126 192 16 0 143 -111 207 -182 81 -89 102 -122 95 -143 -6 -15 -112 -35 -190
-35 -117 0 -292 57 -382 124 -55 41 -145 78 -145 60 0 -3 29 -41 63 -83 65
-78 87 -111 87 -130 0 -35 -260 28 -285 69 -4 6 29 66 73 133 78 121 258 411
281 454 6 13 37 34 69 48 31 14 73 33 92 43 19 10 36 17 38 16 2 -1 -13 -42
-33 -91z m730 38 c228 -34 389 -73 382 -94 -6 -20 -258 -144 -365 -180 -137
-47 -252 -61 -412 -54 -131 7 -280 34 -280 51 0 23 135 138 250 214 l122 81
117 -4 c64 -2 148 -9 186 -14z m-6235 -362 c82 -75 76 -82 -70 -74 -101 6
-170 19 -170 33 0 12 147 99 170 101 3 0 34 -27 70 -60z m200 -156 c78 -55 81
-58 54 -61 -17 -2 -54 1 -84 5 -68 11 -182 2 -187 -14 -2 -6 25 -30 61 -54 37
-24 66 -47 66 -51 0 -4 -38 -8 -84 -8 l-83 0 -12 88 c-19 151 -23 142 62 142
39 0 79 5 87 10 20 13 23 11 120 -57z m3945 -207 c114 -39 116 -42 69 -113
-32 -48 -45 -59 -71 -61 -27 -3 -31 0 -26 17 3 14 -3 25 -23 38 -23 14 -47 18
-129 17 -55 0 -119 -3 -142 -7 -37 -6 -43 -5 -43 11 0 16 36 56 82 91 63 47
155 49 283 7z m1425 -125 c0 -17 -87 -126 -139 -174 -28 -27 -65 -53 -81 -59
-17 -5 -30 -15 -30 -20 0 -14 68 -5 138 18 29 9 55 15 58 11 14 -14 -105 -198
-200 -310 -73 -85 -172 -171 -254 -220 -60 -36 -64 -59 -13 -67 27 -4 31 -7
20 -16 -22 -16 -79 -37 -85 -31 -3 3 -1 29 5 57 31 146 -11 296 -101 357 -18
12 -55 27 -83 34 -27 6 -56 13 -62 15 -8 2 -13 19 -13 39 0 43 -15 75 -35 75
-24 0 -18 21 31 102 35 60 55 83 91 103 26 14 51 24 56 22 9 -3 -83 -97 -95
-97 -5 0 -8 -7 -8 -15 0 -21 28 -30 135 -45 108 -15 219 -8 299 20 78 26 205
98 286 159 66 51 80 58 80 42z m-1534 -12 c24 -6 44 -15 44 -20 0 -12 -193
-206 -258 -259 -34 -27 -57 -39 -63 -33 -5 5 -14 59 -21 119 -9 93 -9 114 5
145 14 34 19 37 73 46 82 14 167 15 220 2z m42 -181 c-29 -47 -59 -93 -65
-104 -7 -10 -43 -70 -80 -132 l-68 -112 -26 28 c-15 16 -34 50 -44 76 l-18 47
34 27 c19 14 87 79 153 144 104 103 154 138 164 116 2 -3 -21 -44 -50 -90z
m-578 12 c0 -156 51 -300 132 -372 63 -56 30 -57 -95 -3 -124 53 -370 122
-460 129 -34 3 -64 5 -66 5 -12 2 62 70 132 122 108 81 303 188 345 189 8 0
12 -21 12 -70z m1205 -180 c8 -25 -10 -50 -36 -50 -23 0 -23 3 -4 40 18 35 31
38 40 10z m-1406 -270 c59 -11 261 -79 310 -105 68 -35 13 -125 -137 -227 -87
-59 -147 -81 -264 -98 -288 -40 -469 119 -342 301 60 88 133 125 263 138 47 4
93 7 101 5 8 -2 39 -8 69 -14z m1362 3 c21 -21 -107 -304 -169 -375 -24 -29
-110 -20 -200 19 -31 14 -32 16 -19 36 35 54 97 158 97 163 0 4 21 40 46 80
29 46 54 76 68 79 11 2 30 6 41 9 32 8 125 0 136 -11z m104 -56 c50 -49 62
-93 46 -155 -22 -79 -105 -142 -207 -158 -46 -7 -52 -1 -31 31 7 11 28 56 46
100 18 44 37 89 42 100 4 11 13 40 20 65 19 76 25 77 84 17z m277 -216 c29
-10 90 -31 134 -45 156 -50 364 -150 364 -175 0 -5 -26 -12 -57 -16 -131 -14
-233 -39 -336 -83 -59 -25 -110 -48 -112 -52 -2 -3 11 -21 28 -40 87 -94 106
-123 192 -298 60 -123 84 -182 73 -182 -3 0 -38 11 -78 25 -87 30 -231 45
-422 45 l-137 0 -30 43 c-56 79 -159 175 -263 244 -57 38 -69 51 -78 84 -6 22
-13 46 -16 53 -3 8 17 32 46 56 51 42 52 43 123 41 89 -2 255 43 331 90 58 35
127 119 152 185 9 24 20 44 24 44 5 0 32 -9 62 -19z m-724 -296 c5 -5 -27 -34
-39 -35 -4 0 -15 12 -24 27 l-17 26 37 -6 c21 -3 40 -9 43 -12z m-203 -191
c43 -278 102 -838 89 -853 -2 -2 -23 3 -46 12 -88 33 -252 58 -496 76 -62 5
-116 11 -119 14 -6 7 22 53 252 417 143 224 227 360 260 418 25 44 27 45 36
30 4 -8 15 -59 24 -114z m342 -149 c158 -127 244 -252 292 -425 21 -73 28
-194 14 -203 -11 -7 -104 25 -213 72 -52 22 -101 41 -108 41 -16 0 -10 -24 23
-90 29 -60 49 -140 37 -152 -11 -11 -61 11 -81 36 -9 10 -13 85 -16 263 -3
232 -19 402 -44 491 -14 47 3 42 96 -33z m1386 -140 c50 -2 108 -4 127 -5 l35
-2 -30 -9 c-16 -6 -78 -10 -137 -10 -87 0 -115 4 -150 20 l-43 21 53 -6 c29
-3 94 -7 145 -9z m-1207 -487 c8 -5 7 -26 -2 -75 -7 -37 -13 -92 -14 -122 0
-62 7 -61 -125 -13 -62 23 -81 34 -83 51 -4 26 -3 26 52 0 65 -32 80 -22 72
46 -3 31 -15 79 -26 108 -11 28 -20 55 -20 58 0 7 124 -39 146 -53z"/>
<path d="M3797 11970 c-29 -75 -35 -124 -14 -118 10 4 75 156 76 181 1 4 -7 7
-17 7 -13 0 -25 -20 -45 -70z"/>
<path d="M4974 12024 c3 -9 6 -23 6 -32 1 -15 3 -14 15 2 21 28 19 46 -6 46
-15 0 -19 -4 -15 -16z"/>
<path d="M5054 12024 c3 -9 6 -20 6 -25 0 -6 9 -8 19 -4 15 5 21 -1 29 -32 l9
-38 15 35 c36 81 36 80 -27 80 -48 0 -56 -3 -51 -16z"/>
<path d="M11793 11976 c91 -107 154 -230 208 -411 l28 -90 0 283 1 282 -145 0
-146 0 54 -64z"/>
<path d="M12021 11174 c0 -11 3 -14 6 -6 3 7 2 16 -1 19 -3 4 -6 -2 -5 -13z"/>
<path d="M12016 11122 c-3 -9 -2 -37 3 -62 l9 -45 1 63 c1 63 -3 77 -13 44z"/>
<path d="M12023 10705 c0 -22 2 -30 4 -17 2 12 2 30 0 40 -3 9 -5 -1 -4 -23z"/>
<path d="M11184 6225 c3 -8 1 -15 -4 -15 -6 0 -10 5 -10 10 0 13 -41 13 -60
-1 -12 -8 -10 -9 9 -4 13 4 21 3 18 -2 -3 -5 10 -10 29 -10 27 -1 34 3 34 18
0 10 -5 19 -11 19 -6 0 -9 -7 -5 -15z"/>
<path d="M11368 6203 c7 -3 16 -2 19 1 4 3 -2 6 -13 5 -11 0 -14 -3 -6 -6z"/>
<path d="M11111 6164 c0 -11 3 -14 6 -6 3 7 2 16 -1 19 -3 4 -6 -2 -5 -13z"/>
<path d="M11086 6152 c-8 -26 2 -48 15 -35 6 6 6 19 1 34 l-9 24 -7 -23z"/>
<path d="M11143 6163 c-18 -7 -16 -33 1 -33 27 0 67 20 61 30 -6 10 -41 12
-62 3z"/>
<path d="M11928 6143 c7 -3 16 -2 19 1 4 3 -2 6 -13 5 -11 0 -14 -3 -6 -6z"/>
<path d="M12008 6123 c7 -3 16 -2 19 1 4 3 -2 6 -13 5 -11 0 -14 -3 -6 -6z"/>
<path d="M11718 6033 c7 -3 16 -2 19 1 4 3 -2 6 -13 5 -11 0 -14 -3 -6 -6z"/>
<path d="M11250 5950 c-9 -6 -10 -10 -3 -10 6 0 15 5 18 10 8 12 4 12 -15 0z"/>
<path d="M11388 5933 c6 -2 18 -2 25 0 6 3 1 5 -13 5 -14 0 -19 -2 -12 -5z"/>
<path d="M11658 5933 c7 -3 16 -2 19 1 4 3 -2 6 -13 5 -11 0 -14 -3 -6 -6z"/>
<path d="M11538 5923 c7 -3 16 -2 19 1 4 3 -2 6 -13 5 -11 0 -14 -3 -6 -6z"/>
<path d="M11808 5923 c7 -3 16 -2 19 1 4 3 -2 6 -13 5 -11 0 -14 -3 -6 -6z"/>
<path d="M3288 4250 c37 -56 114 -129 168 -163 61 -38 146 -56 289 -60 156 -6
138 7 -25 17 -193 12 -248 36 -375 163 -71 71 -82 79 -57 43z"/>
<path d="M3182 3820 c-18 -4 -42 -16 -53 -26 -41 -37 -61 -121 -40 -162 5 -9
16 -33 25 -53 19 -44 40 -63 94 -84 86 -35 238 3 312 76 16 17 30 31 30 32 0
1 -22 0 -48 -1 -67 -5 -126 13 -146 43 -9 14 -19 46 -23 72 -13 102 -50 127
-151 103z"/>
<path d="M8015 3755 c-74 -65 -216 -104 -425 -118 -36 -2 -41 -5 -26 -12 31
-14 231 12 321 42 79 25 154 74 175 114 14 26 12 25 -45 -26z"/>
<path d="M5462 3535 c-66 -94 -172 -132 -334 -122 -51 4 -125 9 -165 13 l-72
7 -46 -41 c-26 -23 -66 -50 -90 -62 -73 -35 -104 -36 -183 -2 -40 17 -72 27
-72 23 0 -16 37 -40 90 -57 54 -19 70 -32 190 -159 62 -65 168 -139 280 -193
66 -32 84 -37 145 -36 225 3 312 187 228 482 l-15 54 29 31 c38 41 63 78 63
94 0 24 -16 13 -48 -32z m-54 -182 c28 -95 33 -148 21 -219 -13 -76 -25 -97
-42 -70 -22 36 -47 56 -61 50 -8 -3 -20 -28 -27 -55 -7 -28 -18 -54 -25 -60
-7 -5 -50 -17 -96 -26 l-85 -16 -59 33 c-78 44 -167 104 -182 123 -11 13 -9
24 13 66 19 39 44 65 100 106 41 31 75 63 75 71 0 16 -12 15 -123 -7 -81 -15
-85 -13 -46 26 34 35 37 36 80 26 24 -6 62 -11 85 -11 26 0 47 -6 57 -18 14
-16 14 -22 -4 -74 -25 -76 -34 -159 -20 -186 18 -34 31 -26 31 21 1 23 6 74
13 113 22 124 68 160 107 85 11 -22 24 -42 30 -46 20 -13 51 17 62 61 11 41
41 72 70 74 3 0 15 -30 26 -67z m-125 30 c3 -5 0 -19 -5 -33 -9 -23 -10 -24
-19 -7 -16 28 8 67 24 40z m-568 -113 c3 -5 -1 -10 -10 -10 -9 0 -13 5 -10 10
3 6 8 10 10 10 2 0 7 -4 10 -10z m654 -234 c21 -22 21 -24 5 -40 -9 -10 -27
-24 -39 -32 -25 -16 -117 -36 -109 -23 3 5 11 9 19 9 38 0 66 25 78 67 6 24
14 43 17 43 4 0 17 -11 29 -24z"/>
<path d="M7620 3358 c-43 -42 -80 -93 -80 -111 0 -18 -49 -63 -83 -76 -42 -16
-87 -13 -158 10 -73 24 -101 37 -111 53 -5 7 -8 4 -8 -7 0 -23 100 -142 143
-172 18 -12 59 -34 92 -51 54 -26 70 -29 155 -29 106 0 194 22 246 61 34 25
71 92 85 152 20 89 -79 190 -194 200 -48 4 -55 2 -87 -30z"/>
<path d="M3624 2227 c11 -7 51 -40 88 -75 70 -64 91 -72 96 -35 5 33 -134 124
-187 122 -13 0 -13 -2 3 -12z"/>
<path d="M4599 1979 c-33 -33 -26 -79 39 -254 104 -277 222 -445 425 -605 l25
-20 -48 -50 c-59 -60 -125 -190 -149 -290 -30 -128 -39 -230 -20 -230 6 0 32
17 58 38 61 51 154 113 216 145 28 13 61 34 75 46 21 17 22 20 7 21 -22 0
-170 -83 -257 -145 -61 -43 -65 -45 -68 -24 -7 43 47 209 105 320 21 40 51 80
75 99 38 31 44 33 80 23 56 -15 45 1 -48 72 -95 72 -187 165 -259 260 -56 76
-141 230 -170 310 -10 28 -22 55 -26 60 -12 17 -43 184 -36 192 4 4 22 1 40
-5 19 -7 48 -12 65 -12 47 0 224 -44 322 -79 86 -31 245 -115 399 -209 87 -54
104 -61 95 -39 -8 20 -91 79 -209 149 -212 125 -296 158 -550 208 -33 7 -84
18 -114 25 -49 11 -55 11 -72 -6z"/>
<path d="M3788 1899 c-23 -13 -65 -114 -89 -214 -32 -134 -33 -367 -1 -485 29
-104 55 -166 104 -249 21 -34 38 -67 38 -71 0 -4 -12 -13 -27 -19 -16 -7 -38
-20 -50 -31 -28 -22 -94 -156 -87 -175 13 -33 119 -33 221 1 43 14 82 30 87
35 22 21 -8 19 -83 -5 -87 -28 -191 -35 -191 -13 0 18 51 110 69 125 37 30 98
52 149 52 29 0 52 5 52 10 0 13 -43 30 -75 30 -18 0 -33 15 -63 64 -68 107
-101 200 -128 357 -15 89 -15 119 -6 219 18 177 67 340 103 340 10 0 94 -70
186 -155 92 -85 171 -155 175 -155 21 0 -37 63 -179 195 -85 79 -162 145 -172
148 -10 2 -25 1 -33 -4z"/>
<path d="M11976 510 c-27 -52 -68 -131 -91 -175 -114 -214 -174 -336 -162
-333 6 2 37 51 67 109 186 352 241 462 238 477 -2 10 -24 -23 -52 -78z"/>
<path d="M0 373 c0 -17 87 -63 118 -63 37 0 -16 48 -77 68 -43 15 -41 15 -41
-5z"/>
<path d="M1911 186 c-17 -20 -25 -105 -14 -146 7 -28 15 -36 36 -38 25 -3 26
-2 17 23 -5 14 -10 60 -10 101 0 73 -7 87 -29 60z"/>
</g>
</svg>
